<?xml version="1.0" standalone="no"?>
<!DOCTYPE svg PUBLIC "-//W3C//DTD SVG 20010904//EN"
 "http://www.w3.org/TR/2001/REC-SVG-20010904/DTD/svg10.dtd">
<svg version="1.0" xmlns="http://www.w3.org/2000/svg"
 width="501.000000pt" height="414.000000pt" viewBox="0 0 501.000000 414.000000"
 preserveAspectRatio="xMidYMid meet">

<g transform="translate(0.000000,414.000000) scale(0.100000,-0.100000)"
fill="#000000" stroke="none">
<path d="M2190 3490 l0 -400 -220 0 -219 0 -3 -240 -3 -240 220 -2 220 -3 5
-865 5 -865 26 -77 c34 -100 80 -170 143 -220 97 -77 218 -124 381 -149 99
-15 446 -18 608 -5 l97 8 0 285 0 286 -50 -7 c-27 -4 -103 -7 -167 -7 -195 0
-263 33 -300 144 -15 47 -17 127 -21 765 l-3 712 270 0 271 0 0 240 0 240
-270 0 -270 0 0 400 0 400 -360 0 -360 0 0 -400z"/>
<path d="M1125 2159 c-49 -138 -91 -255 -93 -260 -2 -5 9 -9 25 -9 28 0 29 3
117 248 49 136 91 253 94 260 3 8 -6 12 -24 12 -29 0 -30 -3 -119 -251z"/>
<path d="M845 2251 c-66 -43 -121 -85 -123 -93 -2 -10 43 -48 118 -102 66 -47
123 -86 125 -86 3 0 5 13 5 30 0 26 -10 37 -80 86 -44 30 -82 59 -85 63 -2 5
34 34 80 65 75 50 85 60 85 86 0 17 -1 30 -2 29 -2 0 -57 -35 -123 -78z"/>
<path d="M1320 2300 c0 -28 9 -36 91 -89 l91 -59 -91 -62 c-80 -55 -91 -66
-91 -92 0 -16 4 -28 9 -26 4 2 60 39 124 83 72 50 116 87 117 98 0 14 -106 90
-237 171 -9 5 -13 -2 -13 -24z"/>
</g>
</svg>
