<?xml version="1.0" standalone="no"?>
<!DOCTYPE svg PUBLIC "-//W3C//DTD SVG 20010904//EN"
 "http://www.w3.org/TR/2001/REC-SVG-20010904/DTD/svg10.dtd">
<svg version="1.0" xmlns="http://www.w3.org/2000/svg"
 width="390.000000pt" height="110.000000pt" viewBox="0 0 390.000000 110.000000"
 preserveAspectRatio="xMidYMid meet">

<g transform="translate(0.000000,110.000000) scale(0.100000,-0.100000)"
fill="#000000" stroke="none">
<path d="M0 550 l0 -550 1950 0 1950 0 0 550 0 550 -1950 0 -1950 0 0 -550z
m990 292 c0 -5 -47 -138 -104 -298 l-104 -289 -36 -3 -36 -3 14 38 c36 102
185 511 195 536 8 21 17 27 41 27 16 0 30 -4 30 -8z m2407 -54 c50 -23 97 -69
126 -123 31 -57 30 -173 0 -231 -29 -54 -101 -117 -151 -132 -205 -62 -397
119 -338 319 45 157 217 235 363 167z m-1477 -28 l0 -50 -65 0 -65 0 0 -210 0
-210 -55 0 -55 0 0 210 0 210 -65 0 -65 0 0 50 0 50 185 0 185 0 0 -50z m198
-87 c31 -73 59 -133 62 -133 3 0 30 60 62 133 l56 132 57 3 c52 3 57 1 51 -15
-26 -67 -221 -503 -226 -503 -4 0 -200 439 -229 512 -1 5 23 8 54 6 l57 -3 56
-132z m442 -123 l0 -260 -55 0 -55 0 0 260 0 260 55 0 55 0 0 -260z m305 229
c173 -89 174 -361 3 -455 -47 -25 -66 -29 -155 -32 l-103 -4 0 262 0 262 103
-4 c86 -3 110 -7 152 -29z m-2215 -47 c0 -38 -1 -40 -106 -107 l-105 -68 48
-34 c26 -19 74 -53 106 -75 53 -38 57 -44 57 -80 l0 -40 -47 35 c-27 18 -94
66 -150 106 -63 44 -103 79 -103 89 0 11 54 52 148 114 81 53 148 97 150 97 1
1 2 -16 2 -37z m700 -174 c0 -10 -40 -45 -102 -89 -57 -40 -124 -88 -150 -106
l-48 -35 0 40 c0 36 4 42 58 80 31 22 79 56 105 75 l48 34 -105 69 c-103 67
-106 69 -106 106 l0 37 150 -97 c95 -62 150 -103 150 -114z"/>
<path d="M3222 694 c-98 -50 -121 -167 -49 -246 96 -105 267 -39 267 103 0
111 -123 191 -218 143z"/>
<path d="M2720 556 l0 -156 36 0 c83 0 141 75 132 170 -8 80 -46 120 -130 135
l-38 7 0 -156z"/>
</g>
</svg>
